<svg xmlns="http://www.w3.org/2000/svg" xmlns:xlink="http://www.w3.org/1999/xlink" width="500" zoomAndPan="magnify" viewBox="0 0 375 374.999991" height="500" preserveAspectRatio="xMidYMid meet" version="1.0"><defs><g/></defs><path stroke-linecap="butt" transform="matrix(0.861797, 0, 0, 0.861797, -6.215607, 26.774775)" fill="none" stroke-linejoin="miter" d="M 223.983165 78.690269 L 53.309711 78.690269 C 29.875766 78.690269 10.675342 97.895226 10.675342 121.392628 L 10.675342 164.026996 C 10.675342 187.460941 29.875766 206.661365 53.309711 206.661365 L 181.285339 206.661365 L 181.285339 249.363724 L 10.675342 249.363724 L 10.675342 291.998092 L 181.285339 291.998092 C 204.782741 291.998092 223.983165 272.797668 223.983165 249.363724 L 223.983165 206.661365 C 223.983165 183.231953 204.782741 164.026996 181.285339 164.026996 L 53.309711 164.026996 L 53.309711 121.392628 L 223.983165 121.392628 Z M 223.983165 78.690269 " stroke="#004aad" stroke-width="9.998362" stroke-opacity="1" stroke-miterlimit="4"/><g fill="#004aad" fill-opacity="1"><g transform="translate(-6.215607, 278.419613)"><g><path d="M 193.007812 -183.816406 L 45.953125 -183.816406 C 25.734375 -183.816406 9.191406 -167.273438 9.191406 -147.054688 L 9.191406 -110.289062 C 9.191406 -90.070312 25.734375 -73.527344 45.953125 -73.527344 L 156.246094 -73.527344 L 156.246094 -36.761719 L 9.191406 -36.761719 L 9.191406 0 L 156.246094 0 C 176.464844 0 193.007812 -16.542969 193.007812 -36.761719 L 193.007812 -73.527344 C 193.007812 -93.746094 176.464844 -110.289062 156.246094 -110.289062 L 45.953125 -110.289062 L 45.953125 -147.054688 L 193.007812 -147.054688 Z M 193.007812 -183.816406 "/></g></g></g><path stroke-linecap="butt" transform="matrix(0.75, 0, 0, 0.75, 177.809347, 26.752251)" fill="none" stroke-linejoin="miter" d="M 208.509426 286.960559 L 159.467756 286.960559 L 159.467756 90.658463 L 110.431294 90.658463 L 110.431294 286.960559 L 61.316708 286.960559 L 61.316708 90.658463 L 12.280246 90.658463 L 12.280246 286.960559 C 12.280246 313.913686 34.363581 336.002229 61.316708 336.002229 L 208.509426 336.002229 C 235.535469 336.002229 257.618804 313.913686 257.618804 286.960559 L 257.618804 90.658463 L 208.509426 90.658463 Z M 208.509426 286.960559 " stroke="#004aad" stroke-width="11.500012" stroke-opacity="1" stroke-miterlimit="4"/></svg>