<svg xmlns="http://www.w3.org/2000/svg" xmlns:xlink="http://www.w3.org/1999/xlink" width="500" zoomAndPan="magnify" viewBox="0 0 375 374.999991" height="500" preserveAspectRatio="xMidYMid meet" version="1.0"><defs><g/></defs><g fill="#004aad" fill-opacity="1"><g transform="translate(-9.68783, 282.022483)"><g><path d="M 200.566406 -191.015625 L 47.753906 -191.015625 C 26.742188 -191.015625 9.550781 -173.824219 9.550781 -152.8125 L 9.550781 -114.609375 C 9.550781 -93.597656 26.742188 -76.40625 47.753906 -76.40625 L 162.363281 -76.40625 L 162.363281 -38.203125 L 9.550781 -38.203125 L 9.550781 0 L 162.363281 0 C 183.375 0 200.566406 -17.191406 200.566406 -38.203125 L 200.566406 -76.40625 C 200.566406 -97.417969 183.375 -114.609375 162.363281 -114.609375 L 47.753906 -114.609375 L 47.753906 -152.8125 L 200.566406 -152.8125 Z M 200.566406 -191.015625 "/></g></g></g><g fill="#004aad" fill-opacity="1"><g transform="translate(174.337126, 282.749983)"><g><path d="M 162.515625 -38.238281 L 124.277344 -38.238281 L 124.277344 -191.195312 L 86.039062 -191.195312 L 86.039062 -38.238281 L 47.800781 -38.238281 L 47.800781 -191.195312 L 9.558594 -191.195312 L 9.558594 -38.238281 C 9.558594 -17.207031 26.765625 0 47.800781 0 L 162.515625 0 C 183.546875 0 200.753906 -17.207031 200.753906 -38.238281 L 200.753906 -191.195312 L 162.515625 -191.195312 Z M 162.515625 -38.238281 "/></g></g></g></svg>